<svg xmlns="http://www.w3.org/2000/svg" width="44" height="44" viewBox="0 0 44 44">
    <defs>
        <filter id="a" width="156.7%" height="156.7%" x="-28.3%" y="-21.7%" filterUnits="objectBoundingBox">
            <feMorphology in="SourceAlpha" operator="dilate" radius=".5" result="shadowSpreadOuter1"/>
            <feOffset in="shadowSpreadOuter1" result="shadowOffsetOuter1"/>
            <feGaussianBlur in="shadowOffsetOuter1" result="shadowBlurOuter1" stdDeviation="1"/>
            <feColorMatrix in="shadowBlurOuter1" result="shadowMatrixOuter1" values="0 0 0 0 0 0 0 0 0 0 0 0 0 0 0 0 0 0 0.399145154 0"/>
            <feMerge>
                <feMergeNode in="shadowMatrixOuter1"/>
                <feMergeNode in="SourceGraphic"/>
            </feMerge>
        </filter>
    </defs>
    <g fill="none" fill-rule="evenodd" filter="url(#a)" opacity=".8" transform="translate(7 7)">
        <path d="M0 0h30v30H0z"/>
        <path fill="#FFF" d="M16.429 15.357v-.786a1 1 0 0 0-1-1H13.57a1.071 1.071 0 1 0 0 2.143v3.572h-.357a1.071 1.071 0 0 0 0 2.143h3.572a1.071 1.071 0 0 0 0-2.143h-.357v-3.929zM3.57 15c0-6.309 5.109-11.429 11.418-11.429 6.32 0 11.44 5.12 11.44 11.429s-5.12 11.429-11.44 11.429C8.68 26.429 3.57 21.309 3.57 15zM15 12.143a1.786 1.786 0 1 0 0-3.572 1.786 1.786 0 0 0 0 3.572z"/>
    </g>
</svg>
