<svg xmlns="http://www.w3.org/2000/svg" width="72" height="72" viewBox="0 0 72 72">
    <defs>
        <filter id="a" width="148.2%" height="148.2%" x="-24.1%" y="-18.8%" filterUnits="objectBoundingBox">
            <feOffset dy="3" in="SourceAlpha" result="shadowOffsetOuter1"/>
            <feGaussianBlur in="shadowOffsetOuter1" result="shadowBlurOuter1" stdDeviation="4"/>
            <feColorMatrix in="shadowBlurOuter1" result="shadowMatrixOuter1" values="0 0 0 0 0 0 0 0 0 0 0 0 0 0 0 0 0 0 0.4 0"/>
            <feMerge>
                <feMergeNode in="shadowMatrixOuter1"/>
                <feMergeNode in="SourceGraphic"/>
            </feMerge>
        </filter>
    </defs>
    <g fill="none" fill-rule="evenodd" filter="url(#a)" opacity=".9" transform="translate(8 8)">
        <path d="M1 1h54v54H1z"/>
        <circle cx="28" cy="28" r="28" fill="#FFF"/>
        <path fill="#0EBCD0" d="M25.64 23.64c.23-.5.36-1.05.36-1.64 0-2.21-1.79-4-4-4s-4 1.79-4 4 1.79 4 4 4c.59 0 1.14-.13 1.64-.36L26 28l-2.36 2.36c-.5-.23-1.05-.36-1.64-.36-2.21 0-4 1.79-4 4s1.79 4 4 4 4-1.79 4-4c0-.59-.13-1.14-.36-1.64L28 30l7 7h3v-1L25.64 23.64zM22 24a2 2 0 1 1-.001-3.999A2 2 0 0 1 22 24zm0 12a2 2 0 1 1-.001-3.999A2 2 0 0 1 22 36zm6-7.5c-.28 0-.5-.22-.5-.5s.22-.5.5-.5.5.22.5.5-.22.5-.5.5zm7-9.5l-6 6 2 2 7-7v-1h-3z"/>
    </g>
</svg>
