<svg xmlns="http://www.w3.org/2000/svg" xmlns:xlink="http://www.w3.org/1999/xlink" width="44" height="44" viewBox="0 0 44 44">
    <defs>
        <filter id="a" width="125%" height="125%" x="-12.5%" y="-12.5%" filterUnits="objectBoundingBox">
            <feOffset in="SourceAlpha" result="shadowOffsetOuter1"/>
            <feGaussianBlur in="shadowOffsetOuter1" result="shadowBlurOuter1" stdDeviation="1"/>
            <feColorMatrix in="shadowBlurOuter1" result="shadowMatrixOuter1" values="0 0 0 0 0 0 0 0 0 0 0 0 0 0 0 0 0 0 0.4 0"/>
            <feMerge>
                <feMergeNode in="shadowMatrixOuter1"/>
                <feMergeNode in="SourceGraphic"/>
            </feMerge>
        </filter>
        <circle id="b" cx="12" cy="12" r="12"/>
    </defs>
    <g fill="none" fill-rule="evenodd">
        <path d="M0 0h44v44H0z"/>
        <g filter="url(#a)" transform="translate(10 10)">
            <use fill="#00B1C7" xlink:href="#b"/>
            <circle cx="12" cy="12" r="11.4" stroke="#FFF" stroke-width="1.2"/>
            <path fill="#FFF" d="M12 13c2.21 0 4-1.79 4-4s-1.79-4-4-4-4 1.79-4 4 1.79 4 4 4zm0 2c-2.67 0-8 1.34-8 4v2h16v-2c0-2.66-5.33-4-8-4z"/>
            <ellipse cx="12" cy="21" fill="#FFF" rx="6" ry="2"/>
            <circle cx="12" cy="12" r="11.4" stroke="#00B1C7" stroke-width="1.2"/>
        </g>
    </g>
</svg>
