<svg xmlns="http://www.w3.org/2000/svg" width="60" height="60" viewBox="0 0 60 60">
    <g fill="none" fill-rule="evenodd">
        <path d="M0 0h60v60H0z"/>
        <g stroke-width="2">
            <g stroke="#0085A5">
                <path d="M46.269 3.992v13.566M43.489 6.091l2.78-2.78 2.78 2.78"/>
            </g>
            <path stroke="#0085A5" d="M49.05 15.459l-2.781 2.78-2.78-2.78M39.486 10.775h13.566M41.585 13.555l-2.78-2.78 2.78-2.78M50.953 7.995l2.78 2.78-2.78 2.78"/>
            <path stroke="#FFF" d="M13.112 41.36l-.364-25.37c0-1.98.725-4.235 3.343-4.184 2.566.05 3.052 2.11 3.098 3.806l1.14 17.915M33.14 35.601l-.75-19.382c0-2.728-.1-4.465-2.52-4.694-2.045-.194-2.157 1.17-2.179 2.32-.02 1.152-.366 19.544-.366 19.544l-.75-19.6c-.067-2.19.4-5.28-2.563-5.73-2.726-.413-3.938 1.53-4.068 3.701-.13 2.17.4 22.284.4 22.284"/>
            <path stroke="#FFF" d="M33.14 28.082c3.573-.6 4.7 1.36 4.896 4.492.199 3.132.272 4.835.272 8.786 0 9.532-5.235 15.005-5.235 15.005M12.81 30.243c-.378-.115-1.466-.22-2.254-.22-1.781 0-3.12 1.408-3.39 3.927-.001 0-.356 2.615-.411 6.041-.074 4.45.72 6.429 2.49 8.986 2.43 3.509 7.474 7.507 7.474 7.507"/>
        </g>
    </g>
</svg>
