<svg xmlns="http://www.w3.org/2000/svg" width="60" height="60" viewBox="0 0 60 60">
    <g fill="none" fill-rule="evenodd">
        <path d="M0 0h60v60H0z"/>
        <g stroke-width="2">
            <path stroke="#FFF" d="M25.469 33.022V15.08c0-1.98-.987-3.295-3.554-3.295-2.566 0-3.553 1.316-3.553 3.295v26.58M38.39 35.9v-6.45c0-2.728-.64-4.477-3.058-4.707-2.046-.194-3.057.621-3.057.621"/>
            <path stroke="#FFF" d="M38.39 28.382c3.573-.6 4.7 1.36 4.897 4.492.198 3.132.27 4.835.27 8.786 0 9.532-5.234 15.005-5.234 15.005M18.06 30.543c-.379-.115-1.466-.22-2.254-.22-1.78 0-3.121 1.408-3.392 3.927 0 0-.353 2.614-.41 6.042-.072 4.449.72 6.427 2.49 8.984 2.43 3.51 7.474 7.508 7.474 7.508M32.575 33.688v-5.98c0-2.727-.738-5.177-3.548-5.177-2.386 0-3.55.621-3.55.621"/>
            <path stroke="#0085A5" d="M40.66 4.742v13.566M37.88 6.841l2.78-2.78 2.78 2.78M43.44 16.209l-2.78 2.78-2.78-2.78M33.878 11.525h13.566M35.977 14.305l-2.78-2.78 2.78-2.78M45.344 8.745l2.78 2.78-2.78 2.78"/>
        </g>
    </g>
</svg>
