<svg xmlns="http://www.w3.org/2000/svg" width="137" height="60" viewBox="0 0 137 60">
    <g fill="none" fill-rule="evenodd">
        <path d="M77 0h60v60H77z"/>
        <g stroke-width="2">
            <path stroke="#FFF" d="M104.719 33.022V15.08c0-1.98-.987-3.295-3.553-3.295-2.567 0-3.554 1.316-3.554 3.295v26.58M117.64 35.9v-6.45c0-2.728-.64-4.477-3.058-4.707-2.046-.194-3.057.621-3.057.621"/>
            <path stroke="#FFF" d="M117.64 28.382c3.573-.6 4.7 1.36 4.897 4.492.198 3.132.27 4.835.27 8.786 0 9.532-5.234 15.005-5.234 15.005M97.31 30.542c-.378-.114-1.466-.22-2.254-.22-1.78 0-3.12 1.408-3.391 3.928 0 0-.354 2.614-.41 6.042-.073 4.449.72 6.427 2.49 8.984 2.43 3.51 7.473 7.507 7.473 7.507M111.825 33.688v-5.98c0-2.727-.738-5.177-3.548-5.177-2.386 0-3.549.621-3.549.621"/>
            <path stroke="#0085A5" d="M119.91 4.742v13.566M117.13 6.841l2.78-2.78 2.78 2.78M122.69 16.209l-2.78 2.78-2.78-2.78"/>
        </g>
        <g>
            <path d="M0 0h60v60H0z"/>
            <g stroke-width="2">
                <path stroke="#FFF" d="M26.218 31.252v-17.94c0-1.98-.986-3.295-3.553-3.295-2.565 0-3.553 1.315-3.553 3.295V39.89M39.139 34.132v-6.45c0-2.729-.64-4.478-3.057-4.708-2.046-.194-3.057.621-3.057.621"/>
                <path stroke="#FFF" d="M39.139 26.613c3.574-.6 4.7 1.36 4.897 4.491.199 3.132.27 4.836.27 8.787 0 9.532-5.233 15.005-5.233 15.005M18.81 28.774c-.378-.115-1.467-.221-2.254-.221-1.781 0-3.12 1.409-3.39 3.928 0 0-.356 2.614-.411 6.041-.074 4.45.72 6.428 2.49 8.985 2.428 3.51 7.473 7.508 7.473 7.508M33.325 31.92v-5.98c0-2.728-.738-5.178-3.548-5.178-2.386 0-3.55.62-3.55.62"/>
                <path stroke="#0085A5" d="M14.467 12.697a8.198 8.198 0 0 1 16.396 0M47.653 10.92a5.963 5.963 0 1 1-11.927-.001 5.963 5.963 0 0 1 11.927 0z"/>
                <path stroke="#0085A5" d="M44.414 10.92h-2.62V8.297"/>
            </g>
        </g>
        <text fill="#FFF" font-family="AppleSDGothicNeo-Regular, Apple SD Gothic Neo" font-size="30" letter-spacing=".372">
            <tspan x="60" y="38">+</tspan>
        </text>
    </g>
</svg>
