<svg xmlns="http://www.w3.org/2000/svg" width="60" height="60" viewBox="0 0 60 60">
    <g fill="none" fill-rule="evenodd">
        <path d="M0 0h60v60H0z"/>
        <g stroke-width="2">
            <path stroke="#FFF" d="M35.656 27.11C31.7 19.088 27.14 11.22 27.14 11.22c-1.295-2.399-2.172-2.667-4.543-1.685-2.371.982-2.239 2.749-1.482 4.577 0 0 4.227 8.279 7.501 14.835 2.152 4.31 3.78 8.865 3.78 8.865M48.694 24.826l-2.938-5.764c-1.43-2.36-2.303-3.893-4.626-3.18-1.965.604-2.44 1.804-2.44 1.804"/>
            <path stroke="#FFF" d="M45.817 17.88c3.073-1.922 4.862-.543 6.243 2.275 1.383 2.818 2.102 4.363 3.614 8.014 3.648 8.807.906 15.866.906 15.866M32.396 37.81c.636 1.537-7.09-5.757-9.974-7.515-.708-.432-1.285-.771-2.326-.109-.935.594-1.614 1.5-1.577 2.805.01.342-.075 1.004 1.137 2.067 2.796 2.456 9.949 9.896 12.08 11.27 3.588 2.311 9.778 4.075 9.778 4.075M42.476 25.007l-2.73-5.342c-1.346-2.68-2.664-4.501-5.26-3.426-2.204.913-3.348 2.44-3.348 2.44"/>
            <path stroke="#0085A5" d="M11.809 22.73l2.752-1.731 1.73 2.752M14.177 21.85a5.963 5.963 0 1 1-5.964-5.963"/>
        </g>
    </g>
</svg>
