<svg xmlns="http://www.w3.org/2000/svg" width="60" height="60" viewBox="0 0 60 60">
    <g fill="none" fill-rule="evenodd">
        <path d="M0 0h60v60H0z"/>
        <g stroke-width="2">
            <path stroke="#FFF" d="M33.753 27.11c-3.956-8.022-8.515-15.891-8.515-15.891-1.296-2.399-2.174-2.667-4.544-1.685-2.37.982-2.239 2.749-1.481 4.577 0 0 4.226 8.279 7.5 14.835 2.153 4.31 3.78 8.865 3.78 8.865M46.792 24.826l-2.939-5.764c-1.43-2.36-2.304-3.893-4.626-3.18-1.965.604-2.44 1.804-2.44 1.804"/>
            <path stroke="#FFF" d="M43.915 17.88c3.072-1.922 4.861-.543 6.243 2.275 1.381 2.818 2.1 4.363 3.612 8.014 3.65 8.807.907 15.866.907 15.866M30.493 37.81c.637 1.537-7.09-5.757-9.974-7.515-.707-.432-1.284-.771-2.327-.109-.934.594-1.612 1.5-1.576 2.805.01.342-.075 1.004 1.137 2.067 2.796 2.456 9.95 9.896 12.08 11.27 3.589 2.311 9.778 4.075 9.778 4.075M40.573 25.007l-2.73-5.342c-1.347-2.68-2.663-4.501-5.26-3.426-2.204.913-3.348 2.44-3.348 2.44"/>
            <path stroke="#0085A5" d="M7.81 15.067v13.566M5.03 17.166l2.78-2.78 2.78 2.78M10.59 26.534l-2.78 2.78-2.78-2.78"/>
        </g>
    </g>
</svg>
