<svg xmlns="http://www.w3.org/2000/svg" width="28" height="28" viewBox="0 0 28 28">
    <defs>
        <filter id="a" width="129.2%" height="133.3%" x="-12.5%" y="-16.7%" filterUnits="objectBoundingBox">
            <feOffset in="SourceAlpha" result="shadowOffsetOuter1"/>
            <feGaussianBlur in="shadowOffsetOuter1" result="shadowBlurOuter1" stdDeviation="1"/>
            <feColorMatrix in="shadowBlurOuter1" result="shadowMatrixOuter1" values="0 0 0 0 0 0 0 0 0 0 0 0 0 0 0 0 0 0 0.304149683 0"/>
            <feMerge>
                <feMergeNode in="shadowMatrixOuter1"/>
                <feMergeNode in="SourceGraphic"/>
            </feMerge>
        </filter>
        <linearGradient id="b" x1="0%" x2="0%" y1="50%" y2="97.833%">
            <stop offset="0%" stop-color="#FFF" stop-opacity="0"/>
            <stop offset="100%" stop-color="#FFF"/>
        </linearGradient>
        <linearGradient id="c" x1="41.348%" x2="50%" y1="50%" y2="50%">
            <stop offset="0%" stop-color="#FFF" stop-opacity="0"/>
            <stop offset="100%" stop-color="#FFF"/>
        </linearGradient>
    </defs>
    <g fill="none" fill-rule="evenodd" filter="url(#a)" opacity=".9" transform="translate(2 2)">
        <path fill="url(#b)" d="M0 12c0 6.627 5.373 12 12 12s12-5.373 12-12S18.627 0 12 0v3a9 9 0 1 1-9 9H0z"/>
        <path fill="url(#c)" d="M0 12c0 6.627 5.373 12 12 12s12-5.373 12-12S18.627 0 12 0v3a9 9 0 1 1-9 9H0z"/>
        <circle cx="12" cy="1.5" r="1.5" fill="#FFF"/>
    </g>
</svg>
