<svg xmlns="http://www.w3.org/2000/svg" width="28" height="28" viewBox="0 0 28 28">
    <defs>
        <linearGradient id="a" x1="0%" x2="0%" y1="50%" y2="97.833%">
            <stop offset="0%" stop-color="#FFF" stop-opacity="0"/>
            <stop offset="100%" stop-color="#FFF"/>
        </linearGradient>
        <linearGradient id="b" x1="0%" x2="50%" y1="50%" y2="50%">
            <stop offset="0%" stop-color="#FFF" stop-opacity="0"/>
            <stop offset="100%" stop-color="#BCBCBC"/>
        </linearGradient>
    </defs>
    <g fill="none" fill-rule="evenodd" opacity=".9" transform="translate(2 2)">
        <path fill="url(#a)" d="M0 12c0 6.627 5.373 12 12 12s12-5.373 12-12S18.627 0 12 0v3a9 9 0 1 1-9 9H0z"/>
        <path fill="url(#b)" d="M0 12c0 6.627 5.373 12 12 12s12-5.373 12-12S18.627 0 12 0v3a9 9 0 1 1-9 9H0z"/>
        <circle cx="12" cy="1.5" r="1.5" fill="#BCBCBC"/>
    </g>
</svg>
