<svg xmlns="http://www.w3.org/2000/svg" width="64" height="64" viewBox="0 0 64 64">
    <g fill="none" fill-rule="evenodd">
        <rect width="63.5" height="63.5" x=".25" y=".25" stroke="#000" stroke-opacity=".568" stroke-width=".5" rx="12"/>
        <path fill="#000" d="M29.127 46.846l-7.218 6.118a.5.5 0 0 1-.82-.44l.886-7.542C16.011 42.386 12 37.544 12 32c0-8.284 8.954-15 20-15s20 6.716 20 15c0 8.284-8.954 15-20 15-.975 0-1.935-.052-2.873-.154zM23.09 32a3.413 3.413 0 0 1 3.41-3.41h4.4V26.5h-4.4A5.502 5.502 0 0 0 21 32c0 3.036 2.464 5.5 5.5 5.5h4.4v-2.09h-4.4A3.413 3.413 0 0 1 23.09 32zm4.51 1.1h8.8v-2.2h-8.8v2.2zm9.9-6.6h-4.4v2.09h4.4A3.413 3.413 0 0 1 40.91 32a3.413 3.413 0 0 1-3.41 3.41h-4.4v2.09h4.4c3.036 0 5.5-2.464 5.5-5.5s-2.464-5.5-5.5-5.5z"/>
    </g>
</svg>
