<svg xmlns="http://www.w3.org/2000/svg" width="64" height="64" viewBox="0 0 64 64">
    <g fill="none" fill-rule="evenodd">
        <rect width="63.5" height="63.5" x=".25" y=".25" stroke="#000" stroke-opacity=".568" stroke-width=".5" rx="12"/>
        <g fill="#000">
            <path fill-rule="nonzero" d="M37.95 17.277H23.218A6.212 6.212 0 0 0 17 23.495V40.55a6.212 6.212 0 0 0 6.218 6.219h17.055a6.212 6.212 0 0 0 6.219-6.219V25.82v2.323h-2.173V40.15a4.44 4.44 0 0 1-4.447 4.447H23.62a4.44 4.44 0 0 1-4.447-4.447V23.897a4.44 4.44 0 0 1 4.447-4.447h12.006v-2.173h2.324z"/>
            <path fill-rule="nonzero" d="M31.746 36.283a4.26 4.26 0 1 0 0-8.52 4.26 4.26 0 0 0 0 8.52zm0 2.294a6.554 6.554 0 1 1 0-13.108 6.554 6.554 0 0 1 0 13.108z"/>
            <path d="M40.14 14h8.614c.279 0 .532.114.715.297.186.184.3.437.3.718v8.614c0 .564-.452 1.02-1.015 1.02h-.1c-.56 0-1.015-.457-1.015-1.02v-6.185l-7.44 7.44-1.506-1.507 7.247-7.247h-5.8a1.016 1.016 0 0 1-1.021-1.015v-.1c0-.56.458-1.015 1.021-1.015z"/>
        </g>
    </g>
</svg>
