<svg xmlns="http://www.w3.org/2000/svg" width="54" height="54" viewBox="0 0 54 54">
    <defs>
        <filter id="a" width="121.4%" height="121.4%" x="-10.7%" y="-10.7%" filterUnits="objectBoundingBox">
            <feMorphology in="SourceAlpha" operator="dilate" radius=".5" result="shadowSpreadOuter1"/>
            <feOffset in="shadowSpreadOuter1" result="shadowOffsetOuter1"/>
            <feGaussianBlur in="shadowOffsetOuter1" result="shadowBlurOuter1" stdDeviation="1"/>
            <feColorMatrix in="shadowBlurOuter1" result="shadowMatrixOuter1" values="0 0 0 0 0 0 0 0 0 0 0 0 0 0 0 0 0 0 0.399145154 0"/>
            <feMerge>
                <feMergeNode in="shadowMatrixOuter1"/>
                <feMergeNode in="SourceGraphic"/>
            </feMerge>
        </filter>
    </defs>
    <g fill="none" fill-rule="evenodd">
        <g filter="url(#a)" opacity=".95" transform="translate(6 6)">
            <circle cx="21" cy="21" r="20" stroke="#FFF" stroke-width="2"/>
            <path fill="#FFF" d="M19.688 14.875h2.625v8.75h-2.625z"/>
            <circle cx="12.688" cy="17.063" r="2.188" fill="#FFF"/>
            <circle cx="29.313" cy="17.063" r="2.188" fill="#FFF"/>
            <path fill="#FFF" fill-rule="nonzero" d="M9.288 24.386h23.424c-1.539 5.007-6.2 8.647-11.712 8.647s-10.173-3.64-11.712-8.647zm-.538-3.56a12.511 12.511 0 0 1 0-.086v.086zm24.497-.327a12.487 12.487 0 0 1 0 .568V20.5zm-21.493 3.887A9.925 9.925 0 0 0 21 30.704a9.925 9.925 0 0 0 9.246-6.318H11.754z"/>
        </g>
        <path d="M0 0h54v54H0z"/>
    </g>
</svg>
