<svg xmlns="http://www.w3.org/2000/svg" xmlns:xlink="http://www.w3.org/1999/xlink" width="134" height="54" viewBox="0 0 134 54">
    <defs>
        <path id="b" d="M18 9h97a6 6 0 0 1 6 6v20a6 6 0 0 1-6 6H18a6 6 0 0 1-6-6V15a6 6 0 0 1 6-6zm3 20.667V33h3.333l9.83-9.83-3.333-3.332-9.83 9.83zm15.74-9.074a.885.885 0 0 0 0-1.253l-2.08-2.08a.886.886 0 0 0-1.253 0l-1.626 1.626 3.333 3.333 1.626-1.626zm15.294 8.917v-1.47h-11.27v1.47h11.27zm-.308-5.194c-2.072-.266-4.34-1.792-4.34-4.074V19.5h-1.988v.742c0 2.282-2.296 3.822-4.34 4.074.266.504.56.994.84 1.498 1.596-.322 3.794-1.512 4.48-3.332.7 1.82 2.982 3.024 4.522 3.332l.826-1.498zm8.085 3.514l-.182-1.428c-1.036.196-3.066.336-4.424.336-.238 0-.462 0-.658-.014v-2.156h3.962v-1.484h-3.962v-1.96h4.06v-1.442h-5.894v8.54c.546 0 1.106.014 1.652.014 1.988 0 3.92-.112 5.446-.406zm2.422 3.276V18.632h-1.876v12.474h1.876zm7.398-11.242h-5.768v1.526h3.808c-.028.504-.084.98-.168 1.428-1.414.084-2.828.154-4.242.252.084.518.154 1.064.238 1.568l3.542-.364c-.686 1.568-1.974 2.772-3.878 3.612.336.476.672.98 1.022 1.456 4.228-2.198 5.432-5.18 5.446-9.478zm3.99 11.242V18.632H71.76v4.746h-2.198v1.568h2.198v6.16h1.862zm13.495-.154v-4.788h-8.148v4.788h8.148zm-2.618-6.454c-.07-.504-.14-.994-.224-1.484-1.414.28-3.234.448-4.41.448h-.252v-4.214h-1.834v5.782H78.8c1.498 0 4.046-.154 5.698-.532zm4.354-1.778v-1.512h-1.736v-2.576h-1.862v6.888h1.862v-2.8h1.736zm-3.598 6.818h-4.438v-1.974h4.438v1.974zm13.699 1.568V18.632H97.09v12.474h1.862zM95.187 19.92h-5.922v1.512h3.962c-.252 2.394-2.002 4.788-4.732 6.062l1.05 1.456c4.046-2.226 5.53-5.39 5.642-9.03zM110.2 31.106V18.632h-1.862v12.474h1.862zm-3.766-11.186h-5.922v1.512h3.962c-.252 2.394-2.002 4.788-4.732 6.062l1.05 1.456c4.046-2.226 5.53-5.39 5.642-9.03z"/>
        <filter id="a" width="116.5%" height="156.2%" x="-8.3%" y="-28.1%" filterUnits="objectBoundingBox">
            <feOffset in="SourceAlpha" result="shadowOffsetOuter1"/>
            <feGaussianBlur in="shadowOffsetOuter1" result="shadowBlurOuter1" stdDeviation="3"/>
            <feComposite in="shadowBlurOuter1" in2="SourceAlpha" operator="out" result="shadowBlurOuter1"/>
            <feColorMatrix in="shadowBlurOuter1" values="0 0 0 0 0 0 0 0 0 0 0 0 0 0 0 0 0 0 0.5 0"/>
        </filter>
    </defs>
    <g fill="none" fill-rule="evenodd">
        <path d="M0 0h134v54H0z"/>
        <use fill="#000" filter="url(#a)" xlink:href="#b"/>
        <use fill="#FFF" fill-opacity=".9" xlink:href="#b"/>
    </g>
</svg>
