<svg xmlns="http://www.w3.org/2000/svg" width="110" height="110" viewBox="0 0 110 110">
    <defs>
        <filter id="a" width="137.5%" height="137.5%" x="-18.8%" y="-18.8%" filterUnits="objectBoundingBox">
            <feOffset in="SourceAlpha" result="shadowOffsetOuter1"/>
            <feGaussianBlur in="shadowOffsetOuter1" result="shadowBlurOuter1" stdDeviation="5.5"/>
            <feColorMatrix in="shadowBlurOuter1" result="shadowMatrixOuter1" values="0 0 0 0 0 0 0 0 0 0 0 0 0 0 0 0 0 0 0.5 0"/>
            <feMerge>
                <feMergeNode in="shadowMatrixOuter1"/>
                <feMergeNode in="SourceGraphic"/>
            </feMerge>
        </filter>
    </defs>
    <g fill="none" fill-rule="evenodd" filter="url(#a)" opacity=".7" transform="translate(11 11)">
        <circle cx="44" cy="44" r="41.9" stroke="#FFF" stroke-width="4.2"/>
        <path fill="#FFF" d="M41.25 31.167h5.5V49.5h-5.5z"/>
        <circle cx="26.583" cy="35.75" r="4.583" fill="#FFF"/>
        <circle cx="61.417" cy="35.75" r="4.583" fill="#FFF"/>
        <path fill="#FFF" fill-rule="nonzero" d="M19.461 51.094H68.54C65.315 61.586 55.549 69.212 44 69.212c-11.548 0-21.315-7.626-24.539-18.118zm-1.128-7.46a26.234 26.234 0 0 1 0-.178v.179zm51.327-.684a26.163 26.163 0 0 1 0 1.191V42.95zm-45.034 8.144C27.648 58.842 35.183 64.332 44 64.332c8.817 0 16.352-5.49 19.374-13.238H24.626z"/>
    </g>
</svg>
