<svg xmlns="http://www.w3.org/2000/svg" xmlns:xlink="http://www.w3.org/1999/xlink" width="240" height="240" viewBox="0 0 240 240">
    <defs>
        <linearGradient id="b" x1="77.005%" x2="77.005%" y1="99.223%" y2="1.325%">
            <stop offset="0%" stop-color="#73E9F3"/>
            <stop offset="100%" stop-color="#6EDCE5"/>
        </linearGradient>
        <path id="a" d="M0 0h240v240H0z"/>
        <linearGradient id="f" x1="50%" x2="50%" y1="5.72%" y2="97.474%">
            <stop offset="0%" stop-color="#B5B5B5"/>
            <stop offset="100%" stop-color="#C0C0C0"/>
        </linearGradient>
        <linearGradient id="g" x1="50%" x2="50%" y1="0%" y2="100%">
            <stop offset="0%" stop-color="#91F0F9"/>
            <stop offset="100%" stop-color="#BEF8FD"/>
        </linearGradient>
        <path id="e" d="M13 0h97v188H13z"/>
        <filter id="d" width="224.7%" height="164.4%" x="-62.4%" y="-31.6%" filterUnits="objectBoundingBox">
            <feOffset dy="1" in="SourceAlpha" result="shadowOffsetOuter1"/>
            <feGaussianBlur in="shadowOffsetOuter1" result="shadowBlurOuter1" stdDeviation="20"/>
            <feColorMatrix in="shadowBlurOuter1" values="0 0 0 0 0 0 0 0 0 0.670110758 0 0 0 0 0.753401361 0 0 0 0.295063406 0"/>
        </filter>
        <filter id="h" width="133.3%" height="132.3%" x="-16.7%" y="-15.3%" filterUnits="objectBoundingBox">
            <feOffset dy="1" in="SourceAlpha" result="shadowOffsetOuter1"/>
            <feGaussianBlur in="shadowOffsetOuter1" result="shadowBlurOuter1" stdDeviation="6.5"/>
            <feColorMatrix in="shadowBlurOuter1" result="shadowMatrixOuter1" values="0 0 0 0 0 0 0 0 0 0 0 0 0 0 0 0 0 0 0.2 0"/>
            <feMerge>
                <feMergeNode in="shadowMatrixOuter1"/>
                <feMergeNode in="SourceGraphic"/>
            </feMerge>
        </filter>
        <linearGradient id="i" x1="50%" x2="50%" y1="2.537%" y2="97.943%">
            <stop offset="0%" stop-color="#D9D9D9"/>
            <stop offset="100%" stop-color="#BFBFBF"/>
        </linearGradient>
        <radialGradient id="j" cy="26.346%" r="65.081%" fx="50%" fy="26.346%">
            <stop offset="0%" stop-color="#FFF8A2"/>
            <stop offset="100%" stop-color="#FFEB2C"/>
        </radialGradient>
        <linearGradient id="k" x1="40.154%" x2="48.956%" y1="40.619%" y2="49.355%">
            <stop offset="0%" stop-color="#F3E457"/>
            <stop offset="45.332%" stop-color="#EEDF55"/>
            <stop offset="100%" stop-color="#DBC714"/>
        </linearGradient>
        <radialGradient id="l" cy="79.006%" r="64.682%" fx="50%" fy="79.006%" gradientTransform="matrix(0 -.3 .63366 0 0 .94)">
            <stop offset="0%" stop-color="#A96C17"/>
            <stop offset="100%" stop-color="#5A3703"/>
        </radialGradient>
        <radialGradient id="m" cy="70.749%" fx="50%" fy="70.749%" gradientTransform="matrix(0 -1 .97677 0 -.191 1.207)">
            <stop offset="0%" stop-color="#975D0D"/>
            <stop offset="100%" stop-color="#5A3703"/>
        </radialGradient>
        <radialGradient id="n" cy="100%" r="36.68%" fx="50%" fy="100%" gradientTransform="matrix(0 -1 1.9947 0 -1.495 1.5)">
            <stop offset="0%" stop-color="#B06F14"/>
            <stop offset="100%" stop-color="#5A3703"/>
        </radialGradient>
        <linearGradient id="o" x1="30.02%" x2="51.735%" y1="28.345%" y2="49.41%">
            <stop offset="0%" stop-color="#F7E74D"/>
            <stop offset="100%" stop-color="#E4D118"/>
        </linearGradient>
    </defs>
    <g fill="none" fill-rule="evenodd">
        <mask id="c" fill="#fff">
            <use xlink:href="#a"/>
        </mask>
        <use fill="#EAEAEA" xlink:href="#a"/>
        <use fill="url(#b)" xlink:href="#a"/>
        <g mask="url(#c)">
            <g transform="translate(59 26)">
                <use fill="#000" filter="url(#d)" xlink:href="#e"/>
                <use fill="url(#f)" xlink:href="#e"/>
                <use fill="#000" fill-opacity=".2" xlink:href="#e"/>
                <use fill="url(#g)" xlink:href="#e"/>
            </g>
            <g filter="url(#h)" transform="translate(59 56)">
                <path fill="url(#i)" fill-rule="nonzero" d="M8.25 39h103.5c4.583 0 8.25 4.016 8.25 9L60 91.5 0 48c0-4.984 3.667-9 8.25-9z"/>
                <path fill="#EEE" fill-rule="nonzero" d="M59.954.056c-.902-.005-1.59.535-2.346 1.026C41.35 11.64 13.286 32.968 3.562 40.42c-1.067.817-1.64 1.643-1.947 2.272-.938 1.47-1.488 3.262-1.488 5.202H119.94c0-2.176-.692-4.168-1.849-5.725a8.243 8.243 0 0 0-1.773-1.866c-9.926-7.53-37.89-28.595-54.03-39.19-.755-.496-1.43-1.05-2.333-1.056z"/>
                <g transform="translate(17 29)">
                    <circle cx="44" cy="44" r="44" fill="url(#j)"/>
                    <path fill="url(#k)" d="M88 44L44 88c0-24.3 19.7-44 44-44z" transform="rotate(180 66 66)"/>
                    <circle cx="44" cy="44" r="44"/>
                    <g transform="translate(16.5 30.938)">
                        <path fill="url(#l)" d="M24.556.157h5.875v19.582h-5.875z"/>
                        <circle cx="8.89" cy="5.052" r="4.895" fill="url(#m)"/>
                        <circle cx="46.113" cy="4.989" r="4.895" fill="url(#m)"/>
                        <path fill="url(#n)" fill-rule="nonzero" d="M1.283 21.441h52.42c-3.444 11.206-13.876 19.352-26.21 19.352-12.335 0-22.767-8.146-26.21-19.352zM.078 13.474a28.004 28.004 0 0 1 0-.191v.19zm54.822-.732a27.945 27.945 0 0 1 0 1.273v-1.273zm-48.1 8.7c3.227 8.275 11.275 14.139 20.693 14.139 9.417 0 17.466-5.864 20.693-14.14H6.8z"/>
                    </g>
                    <path fill="url(#o)" d="M88 44L44 88c0-24.3 19.7-44 44-44z"/>
                </g>
                <path fill="#EEE" fill-rule="nonzero" d="M120 48v67.5c0 4.528-3.666 8.25-8.25 8.25H8.25L60 91.5 120 48z"/>
                <path fill="#E4E4E4" fill-rule="nonzero" d="M0 48v67.5c0 4.528 3.666 8.25 8.25 8.25h103.5L60 91.5 0 48z"/>
            </g>
        </g>
    </g>
</svg>
