<svg xmlns="http://www.w3.org/2000/svg" width="54" height="54" viewBox="0 0 54 54">
    <defs>
        <filter id="a" width="141.7%" height="137.5%" x="-22.9%" y="-18.8%" filterUnits="objectBoundingBox">
            <feMorphology in="SourceAlpha" operator="dilate" radius=".5" result="shadowSpreadOuter1"/>
            <feOffset in="shadowSpreadOuter1" result="shadowOffsetOuter1"/>
            <feGaussianBlur in="shadowOffsetOuter1" result="shadowBlurOuter1" stdDeviation="1"/>
            <feColorMatrix in="shadowBlurOuter1" result="shadowMatrixOuter1" values="0 0 0 0 0 0 0 0 0 0 0 0 0 0 0 0 0 0 0.335427989 0"/>
            <feMerge>
                <feMergeNode in="shadowMatrixOuter1"/>
                <feMergeNode in="SourceGraphic"/>
            </feMerge>
        </filter>
    </defs>
    <g fill="none" fill-rule="evenodd">
        <path d="M0 0h54v54H0z"/>
        <g fill="#FFF" filter="url(#a)" transform="translate(15 15)">
            <path fill-rule="nonzero" d="M4.8 1.6a3.2 3.2 0 0 0-3.2 3.2v14.4a3.2 3.2 0 0 0 3.2 3.2h14.4a3.2 3.2 0 0 0 3.2-3.2V4.8a3.2 3.2 0 0 0-3.2-3.2H4.8zm0-1.6h14.4A4.8 4.8 0 0 1 24 4.8v14.4a4.8 4.8 0 0 1-4.8 4.8H4.8A4.8 4.8 0 0 1 0 19.2V4.8A4.8 4.8 0 0 1 4.8 0zM8 0v1.6h8V0H8zm0 22.4V24h8v-1.6H8zM1.6 8H0v8h1.6V8zM24 8h-1.6v8H24V8z"/>
            <path d="M5.6 6.2h12.8v2H5.6v-2zm0 4.8h12.8v2H5.6v-2zm0 4.8h12.8v2H5.6v-2z"/>
        </g>
    </g>
</svg>
